<?xml version="1.0" standalone="no"?>
<!DOCTYPE svg PUBLIC "-//W3C//DTD SVG 20010904//EN"
 "http://www.w3.org/TR/2001/REC-SVG-20010904/DTD/svg10.dtd">
<svg version="1.0" xmlns="http://www.w3.org/2000/svg"
 width="291.000000pt" height="164.000000pt" viewBox="0 0 291.000000 164.000000"
 preserveAspectRatio="xMidYMid meet">

<g transform="translate(0.000000,164.000000) scale(0.100000,-0.100000)"
fill="#000000" stroke="none">
<path d="M645 1561 c-226 -98 -291 -130 -487 -244 l-158 -91 0 -249 0 -249
187 182 c353 344 590 542 800 671 l97 59 -129 0 -130 -1 -180 -78z"/>
<path d="M563 1036 c-59 -27 -68 -54 -68 -206 0 -113 3 -140 18 -163 29 -45
61 -59 127 -58 123 1 150 41 149 213 0 127 -12 172 -51 201 -35 26 -130 33
-175 13z m131 -78 c20 -29 23 -235 4 -261 -9 -11 -29 -18 -57 -19 -64 -2 -71
13 -71 147 0 133 10 155 70 155 29 0 43 -6 54 -22z"/>
<path d="M891 1033 c-58 -29 -74 -81 -69 -229 3 -123 3 -124 34 -155 58 -58
170 -61 224 -7 37 37 37 44 -1 63 -29 16 -31 15 -54 -9 -19 -21 -30 -24 -62
-21 -56 8 -63 23 -63 150 0 133 10 155 70 155 31 0 43 -5 56 -25 16 -24 17
-24 47 -8 43 21 42 19 23 49 -34 51 -137 70 -205 37z"/>
<path d="M1552 1034 c-59 -30 -80 -109 -44 -168 10 -17 48 -46 92 -70 83 -46
96 -70 60 -106 -27 -27 -76 -21 -101 11 -15 20 -17 20 -47 5 -37 -19 -39 -25
-12 -58 34 -44 142 -58 203 -26 26 13 57 68 57 101 0 60 -34 99 -127 147 -54
28 -63 36 -63 59 0 52 54 69 96 30 21 -20 24 -20 53 -4 34 17 32 32 -8 69 -30
27 -116 32 -159 10z"/>
<path d="M1261 1023 c-11 -23 -109 -338 -117 -381 l-7 -33 38 3 c34 3 40 7 50
38 12 35 12 35 70 35 58 0 58 0 70 -35 10 -30 16 -35 48 -38 30 -3 37 0 37 14
0 10 -28 107 -62 216 -61 194 -63 198 -90 198 -16 0 -31 -7 -37 -17z m61 -236
c2 -17 -3 -23 -21 -25 -37 -6 -41 8 -23 73 l16 59 13 -42 c6 -23 13 -52 15
-65z"/>
<path d="M1907 1033 c-8 -14 -127 -399 -127 -411 0 -7 16 -12 39 -12 37 0 40
2 48 38 l9 37 60 3 60 3 10 -38 c8 -36 11 -38 52 -41 42 -3 43 -2 36 20 -8 27
-64 207 -100 326 -24 78 -27 82 -54 82 -16 0 -31 -3 -33 -7z m42 -180 c26 -98
26 -93 -6 -93 -16 0 -32 2 -35 5 -4 5 23 125 29 125 1 0 7 -17 12 -37z"/>
</g>
</svg>
